<svg data-v-0dd9719b="" version="1.0" xmlns="http://www.w3.org/2000/svg" xmlns:xlink="http://www.w3.org/1999/xlink" width="100%" height="100%" viewBox="0 0 340 250" preserveAspectRatio="xMidYMid meet" color-interpolation-filters="sRGB" style="margin: auto;"> <rect data-v-0dd9719b="" x="0" y="0" width="100%" height="100%" fill="#ffffff" fill-opacity="1" class="background"></rect> <rect data-v-0dd9719b="" x="0" y="0" width="100%" height="100%" fill="url(#watermark)" fill-opacity="1" class="watermarklayer"></rect> <g data-v-0dd9719b="" fill="#1c085d" class="icon-text-wrapper icon-svg-group iconsvg" transform="translate(52.83999627828598,71.88199996948242)"><g class="iconsvg-imagesvg" transform="translate(87.16000366210938,0)"><g><rect fill="#1c085d" fill-opacity="0" stroke-width="2" x="0" y="0" width="60" height="60" class="image-rect"></rect> <svg filter="url(#colors241704769)" x="0" y="0" width="60" height="60" filtersec="colorsf9938741400" class="image-svg-svg primary" style="overflow: visible;"><svg xmlns="http://www.w3.org/2000/svg" viewBox="0 0 64 64"><path fill="none" d="M0 0h64v64H0z"></path><path d="M54.627 9.373c-2.514-2.514-7.276-2.112-12.259.802.172.845.319 1.716.422 2.626.14 1.253.21 2.496.21 3.699 0 3.591-.576 7.055-1.665 10.016-1.008 2.742-2.424 4.953-4.095 6.396a8.896 8.896 0 0 1-2.212 1.421c.059.005.112.021.172.025.195.014.396.021.599.021 1.747 0 3.751-.503 5.84-1.47 2.655-1.225 5.313-3.127 7.693-5.505a35.939 35.939 0 0 0 2.306-2.583l.006-.007c4.804-6.044 6.031-12.394 2.983-15.441z" fill="#000000"></path><path d="M54.767 23.901a30.496 30.496 0 0 1-1.558 2.156 38.292 38.292 0 0 1-2.453 2.75c-2.555 2.553-5.414 4.596-8.279 5.917-2.337 1.082-4.646 1.654-6.678 1.654-.251 0-.497-.008-.738-.025l-.108-.007-.198-.032-1.964-.18c1.236 1.336 3.086 2.484 5.385 3.326C40.918 40.467 44.143 41 47.5 41c1.133 0 2.301-.066 3.474-.196C58.644 39.931 64 36.31 64 32c0-3.556-3.651-6.638-9.233-8.099zM9.244 40.095c.482-.729.996-1.452 1.566-2.162a31.594 31.594 0 0 1 2.447-2.753 35.609 35.609 0 0 1 2.759-2.462c1.792-1.428 3.645-2.585 5.511-3.443 2.314-1.072 4.613-1.64 6.643-1.64h2.811c-1.233-1.24-2.999-2.303-5.157-3.093-1.795-.66-3.764-1.112-5.854-1.345-2.421-.269-4.845-.25-6.931 0-2.099.234-4.072.687-5.863 1.345-2.422.887-4.353 2.109-5.581 3.533C.552 29.273 0 30.631 0 32s.552 2.727 1.593 3.923c1.23 1.426 3.161 2.649 5.583 3.535.663.244 1.358.45 2.068.637z" fill="#000000"></path><path d="M21.208 51.183A31.232 31.232 0 0 1 21 47.5c0-1.208.07-2.451.208-3.692.247-2.215.725-4.3 1.42-6.198l.028-.085c.844-2.338 2.017-4.288 3.399-5.726l.975-.99 1.192-1.173c-1.748-.011-3.76.484-5.861 1.457-1.718.79-3.433 1.862-5.097 3.188a33.566 33.566 0 0 0-2.593 2.313 29.623 29.623 0 0 0-2.302 2.591c-1.33 1.657-2.406 3.373-3.197 5.096-1.09 2.353-1.591 4.582-1.451 6.438.107 1.585.679 2.938 1.65 3.909.972.973 2.324 1.543 3.902 1.65.206.016.416.023.631.023 1.727 0 3.721-.503 5.812-1.472.642-.295 1.28-.641 1.916-1.013a29.937 29.937 0 0 1-.424-2.633z" fill="#000000"></path><path d="M37.942 53.208a37.91 37.91 0 0 1-2.75-2.453c-2.551-2.551-4.594-5.41-5.917-8.279-1.109-2.395-1.678-4.763-1.646-6.846l.041-2.647c-1.264 1.244-2.339 3.02-3.122 5.187l-.043.127c-.64 1.749-1.081 3.676-1.31 5.732A31.812 31.812 0 0 0 23 47.5c0 1.215.066 2.382.196 3.461.234 2.099.687 4.072 1.345 5.863.887 2.422 2.109 4.353 3.533 5.581C29.273 63.448 30.631 64 32 64c1.368 0 2.727-.552 3.923-1.593 1.427-1.23 2.649-3.161 3.535-5.582.244-.664.45-1.359.637-2.068a30.178 30.178 0 0 1-2.153-1.549z" fill="#000000"></path><path d="M51.2 42.791c-1.25.139-2.493.209-3.7.209-3.59 0-7.053-.576-10.016-1.664-2.577-.943-4.709-2.273-6.163-3.845l-1.003-1.085-.289-.313-.399-.432c-.028 1.78.469 3.833 1.462 5.978 1.225 2.656 3.127 5.315 5.505 7.693a35.43 35.43 0 0 0 2.591 2.311c3.822 3.04 7.767 4.647 10.921 4.647 1.832 0 3.398-.542 4.519-1.663 2.514-2.514 2.113-7.276-.801-12.258-.846.171-1.717.318-2.627.422z" fill="#000000"></path><g><path d="M40.803 13.027C39.93 5.357 36.31 0 32 0c-3.557 0-6.639 3.653-8.1 9.238.726.479 1.448.989 2.159 1.555l.407.336a31.558 31.558 0 0 1 2.355 2.128 35.402 35.402 0 0 1 2.462 2.759c1.428 1.792 2.585 3.645 3.443 5.51 1.082 2.337 1.649 4.65 1.641 6.684l-.012 2.791c1.236-1.224 2.303-2.997 3.104-5.176C40.467 23.083 41 19.858 41 16.5c0-1.13-.066-2.298-.197-3.473z" fill="#000000"></path></g><path d="M10.184 21.634a30.584 30.584 0 0 1 6.258-.632c1.251 0 2.512.07 3.749.207 2.25.25 4.377.741 6.324 1.456 2.204.807 4.071 1.915 5.478 3.203l1.025.979 1.348 1.355c.008-1.742-.488-3.746-1.457-5.84-.79-1.718-1.862-3.432-3.188-5.096a33.566 33.566 0 0 0-2.313-2.593 29.595 29.595 0 0 0-2.217-2.002l-.377-.312c-1.666-1.326-3.38-2.398-5.093-3.185-2.353-1.089-4.583-1.593-6.438-1.451-1.585.107-2.938.679-3.909 1.65-.972.972-1.543 2.324-1.65 3.902-.141 1.864.36 4.092 1.449 6.442.293.642.64 1.28 1.011 1.917z" fill="#000000"></path></svg></svg> <defs><filter id="colors241704769"><feColorMatrix type="matrix" values="0 0 0 0 0.109375  0 0 0 0 0.03125  0 0 0 0 0.36328125  0 0 0 1 0" class="icon-fecolormatrix"></feColorMatrix></filter> <filter id="colorsf9938741400"><feColorMatrix type="matrix" values="0 0 0 0 0.99609375  0 0 0 0 0.99609375  0 0 0 0 0.99609375  0 0 0 1 0" class="icon-fecolormatrix"></feColorMatrix></filter> <filter id="colorsb642173179"><feColorMatrix type="matrix" values="0 0 0 0 0  0 0 0 0 0  0 0 0 0 0  0 0 0 1 0" class="icon-fecolormatrix"></feColorMatrix></filter></defs></g></g> <g transform="translate(0,67)"><g data-gra="path-name" fill-rule="" class="tp-name iconsvg-namesvg" transform="translate(0,0)"><g transform="scale(1)"><g><path d="M8.68-8.25C12.24-8.25 15.15-9.07 16.99-10.36 18.97-11.75 20-13.56 20-15.67 20-17.79 18.97-19.6 16.99-20.99 15.15-22.27 12.24-23.1 8.68-23.1L0.79-23.1 0.79-22.8 1.95-22.57C2.8-22.41 3.37-21.71 3.37-20.86L3.37-2.24C3.37-1.39 2.8-0.69 1.95-0.53L0.79-0.3 0.79 0 9.9 0 9.9-0.3 8.74-0.53C7.89-0.69 7.33-1.39 7.33-2.24L7.33-8.25ZM7.33-22.44L8.68-22.44C13.3-22.44 15.58-20.23 15.58-15.67 15.58-11.12 13.3-8.91 8.68-8.91L7.33-8.91ZM35.51-11.88L35.51-2.24C35.51-1.39 34.95-0.69 34.09-0.53L32.93-0.3 32.93 0 42.04 0 42.04-0.3 40.89-0.53C40.03-0.69 39.47-1.39 39.47-2.24L39.47-20.86C39.47-21.71 40.03-22.41 40.89-22.57L42.04-22.8 42.04-23.1 32.93-23.1 32.93-22.8 34.09-22.57C34.95-22.41 35.51-21.71 35.51-20.86L35.51-12.54 27.03-12.54 27.03-20.86C27.03-21.71 27.59-22.41 28.44-22.57L29.6-22.8 29.6-23.1 20.49-23.1 20.49-22.8 21.65-22.57C22.51-22.41 23.07-21.71 23.07-20.86L23.07-2.24C23.07-1.39 22.51-0.69 21.65-0.53L20.49-0.3 20.49 0 29.6 0 29.6-0.3 28.44-0.53C27.59-0.69 27.03-1.39 27.03-2.24L27.03-11.88ZM57.55-3C58.28-1.09 57.88-0.69 55.83-0.3L55.83 0 65.17 0 65.17-0.3C63.52-0.63 62.17-1.85 61.44-3.73L53.59-23.59 52.63-23.59 45.24-3.76C44.61-2.05 43.26-0.86 41.51-0.33L41.45-0.3 41.45 0 48.24 0 48.24-0.3 47.39-0.56C46.26-0.89 45.74-1.95 46.16-3.04L47.58-6.76 56.06-6.76ZM51.68-17.92L55.8-7.39 47.81-7.39ZM63.95-23.1L63.95-22.8 65.11-22.57C65.96-22.41 66.53-21.71 66.53-20.86L66.53-2.24C66.53-1.39 65.96-0.69 65.11-0.53L63.95-0.3 63.95 0 73.06 0 73.06-0.3 71.9-0.53C71.05-0.69 70.48-1.39 70.48-2.24L70.48-11.55 72.04-11.55C75.4-11.55 77.15-10.76 77.68-7.42L78.31-3.23C78.67-0.82 80.09 0.49 82.13 0.49 83.45 0.49 84.91-0.03 85.47-0.99L84.77-1.32C84.54-1.02 84.11-0.49 83.62-0.49 83.12-0.49 82.83-0.89 82.73-1.65L81.87-7.42C81.31-11.15 77.88-11.55 74.41-11.88 76-11.98 77.41-12.24 78.64-12.67 79.69-13.07 80.88-13.56 81.61-14.32 82.5-15.25 82.93-16.17 82.93-17.32 82.93-18.94 82-20.33 80.25-21.38 78.5-22.41 75.73-23.1 72.04-23.1ZM78.54-17.32C78.54-13.99 76.23-12.21 72.04-12.21L70.48-12.21 70.48-22.44 72.04-22.44C76.23-22.44 78.54-20.66 78.54-17.32ZM100.78-4.45L92.2-23.1 85.66-23.1 85.66-22.8 87.15-22.44C87.94-22.24 88.47-21.58 88.47-20.76L88.47-2.41C88.47-1.65 87.97-0.96 87.25-0.76L85.66-0.3 85.66 0 92.43 0 92.43-0.3 90.88-0.76C90.15-0.99 89.66-1.62 89.66-2.38L89.66-19.67 99 0.49 99.92 0.49 108.17-19.57 108.17-2.24C108.17-1.39 107.61-0.69 106.75-0.53L105.6-0.3 105.6 0 114.7 0 114.7-0.3 113.55-0.53C112.69-0.69 112.13-1.39 112.13-2.24L112.13-20.86C112.13-21.71 112.69-22.41 113.55-22.57L114.7-22.8 114.7-23.1 108.37-23.1ZM130.54-3C131.27-1.09 130.87-0.69 128.83-0.3L128.83 0 138.16 0 138.16-0.3C136.52-0.63 135.16-1.85 134.44-3.73L126.58-23.59 125.63-23.59 118.23-3.76C117.61-2.05 116.25-0.86 114.51-0.33L114.44-0.3 114.44 0 121.24 0 121.24-0.3 120.38-0.56C119.26-0.89 118.73-1.95 119.16-3.04L120.58-6.76 129.06-6.76ZM124.67-17.92L128.79-7.39 120.81-7.39ZM161.82-4.72C158.62-6.9 158.62-0.66 157.04-0.66L148.16-0.66 161.89-23.1 144.96-23.1 144.96-22.8C146.25-22.8 145.75-18.38 144.86-18.38 148.06-16.2 148.06-22.44 149.65-22.44L157.34-22.44 143.61 0 161.73 0 161.73-0.3C160.44-0.3 160.93-4.72 161.82-4.72ZM170.44-22.54L171.72-22.8 171.72-23.1 162.62-23.1 162.62-22.8 163.77-22.57C164.63-22.41 165.19-21.71 165.19-20.86L165.19-2.24C165.19-1.39 164.63-0.69 163.77-0.53L162.62-0.3 162.62 0 171.72 0 171.72-0.3 170.57-0.53C169.71-0.69 169.15-1.39 169.15-2.24L169.15-20.86C169.15-21.71 169.68-22.41 170.44-22.54ZM191.09-6.2L179.18-23.1 173.08-23.1 173.08-22.8 174.56-22.44C175.35-22.24 175.88-21.58 175.88-20.76L175.88-2.41C175.88-1.65 175.39-0.99 174.66-0.76L173.08-0.3 173.08 0 179.84 0 179.84-0.3 178.29-0.76C177.57-0.99 177.07-1.62 177.07-2.38L177.07-19.87 191.36 0.33 192.28 0.33 192.28-20.69C192.28-21.45 192.78-22.11 193.5-22.34L195.09-22.8 195.09-23.1 188.32-23.1 188.32-22.8 189.87-22.34C190.6-22.11 191.09-21.48 191.09-20.72ZM215.18-4.72C211.98-6.9 211.98-0.66 210.4-0.66L204.82-0.66C203.77-0.66 202.97-1.45 202.97-2.51L202.97-11.88 203.63-11.88C205.65-11.88 207.63-10.89 208.78-9.24L209.01-8.91 209.41-8.91 209.41-15.51 209.01-15.51 208.78-15.18C207.63-13.53 205.65-12.54 203.63-12.54L202.97-12.54 202.97-20.76C202.97-21.61 203.47-22.44 204.26-22.44L210.4-22.44C211.98-22.44 211.98-16.2 215.18-18.38 214.29-18.38 213.8-22.8 215.08-22.8L215.08-23.1 196.44-23.1 196.44-22.8 197.6-22.57C198.45-22.41 199.01-21.71 199.01-20.86L199.01-2.24C199.01-1.39 198.45-0.69 197.6-0.53L196.44-0.3 196.44 0 215.08 0 215.08-0.3C213.8-0.3 214.29-4.72 215.18-4.72ZM224.03 0C227.36 0 230.2-0.86 232.08-2.18 234.06-3.53 235.11-5.35 235.11-7.42 235.11-8.94 234.62-10.23 233.63-11.38 232.77-12.34 231.55-12.97 230.3-13.5 228.98-14.02 227.36-14.39 225.51-14.52 226.8-14.62 227.92-14.85 228.81-15.15 229.74-15.48 230.56-15.94 231.06-16.4 231.75-17.03 232.11-17.75 232.11-18.64 232.11-19.93 231.42-20.99 230.07-21.81 228.78-22.57 226.73-23.1 224.03-23.1L216.14-23.1 216.14-22.8 217.3-22.57C218.15-22.41 218.71-21.71 218.71-20.86L218.71-2.24C218.71-1.39 218.15-0.69 217.3-0.53L216.14-0.3 216.14 0ZM222.67-22.44L224.03-22.44C226.67-22.44 228.15-21.05 228.15-18.64 228.15-16.24 226.67-14.88 224.03-14.85L222.67-14.85ZM224.03-14.19C225.97-14.19 227.56-13.63 228.81-12.47 230.07-11.25 230.73-9.47 230.73-7.42 230.73-5.38 230.07-3.6 228.81-2.38 227.56-1.22 225.97-0.66 224.03-0.66L222.67-0.66 222.67-14.19Z" transform="translate(-0.7899999618530273, 23.59000015258789)"></path></g> </g></g> <g data-gra="path-slogan" fill-rule="" class="tp-slogan iconsvg-slogansvg" fill="#cd8c2a" transform="translate(88.14500427246094,31.080001831054688)"> <g transform="scale(1, 1)"><g transform="scale(1)"><path d="M1.08 0L1.08-7.87L3.49-7.87Q4.14-7.87 4.68-7.75Q5.22-7.63 5.60-7.36Q5.98-7.09 6.19-6.65Q6.40-6.20 6.40-5.56L6.40-5.56Q6.40-4.93 6.19-4.48Q5.98-4.02 5.59-3.72Q5.21-3.42 4.67-3.27Q4.14-3.12 3.49-3.12L3.49-3.12L2.08-3.12L2.08 0L1.08 0ZM2.08-3.94L3.37-3.94Q4.40-3.94 4.90-4.33Q5.40-4.72 5.40-5.56L5.40-5.56Q5.40-6.41 4.90-6.74Q4.39-7.07 3.37-7.07L3.37-7.07L2.08-7.07L2.08-3.94ZM7.99 0L7.99-7.87L8.99-7.87L8.99-4.57L12.65-4.57L12.65-7.87L13.66-7.87L13.66 0L12.65 0L12.65-3.71L8.99-3.71L8.99 0L7.99 0ZM16.80-3.20L19.16-3.20L18.79-4.40Q18.58-5.06 18.38-5.72Q18.19-6.37 18-7.06L18-7.06L17.95-7.06Q17.77-6.37 17.58-5.72Q17.39-5.06 17.17-4.40L17.17-4.40L16.80-3.20ZM20.16 0L19.42-2.40L16.55-2.40L15.79 0L14.77 0L17.44-7.87L18.56-7.87L21.23 0L20.16 0ZM23.34-7.07L23.34-4.14L24.66-4.14Q25.58-4.14 26.08-4.52Q26.57-4.90 26.57-5.66L26.57-5.66Q26.57-6.44 26.08-6.76Q25.58-7.07 24.66-7.07L24.66-7.07L23.34-7.07ZM27.79 0L26.66 0L24.77-3.32L23.34-3.32L23.34 0L22.34 0L22.34-7.87L24.80-7.87Q25.40-7.87 25.91-7.76Q26.42-7.64 26.79-7.38Q27.16-7.12 27.36-6.70Q27.56-6.28 27.56-5.66L27.56-5.66Q27.56-4.74 27.08-4.19Q26.60-3.64 25.80-3.43L25.80-3.43L27.79 0ZM29.32 0L29.32-7.87L30.49-7.87L32.02-3.65L32.59-2.04L32.64-2.04L33.19-3.65L34.70-7.87L35.88-7.87L35.88 0L34.93 0L34.93-4.33Q34.93-4.86 34.97-5.50Q35.02-6.13 35.06-6.66L35.06-6.66L35.02-6.66L34.38-4.91L32.87-0.79L32.30-0.79L30.78-4.91L30.16-6.66L30.11-6.66Q30.14-6.13 30.19-5.50Q30.24-4.86 30.24-4.33L30.24-4.33L30.24 0L29.32 0ZM39.02-3.20L41.39-3.20L41.02-4.40Q40.80-5.06 40.61-5.72Q40.42-6.37 40.22-7.06L40.22-7.06L40.18-7.06Q40.00-6.37 39.80-5.72Q39.61-5.06 39.40-4.40L39.40-4.40L39.02-3.20ZM42.38 0L41.64-2.40L38.77-2.40L38.02 0L37.00 0L39.66-7.87L40.79-7.87L43.45 0L42.38 0ZM43.99-3.94L43.99-3.94Q43.99-4.88 44.26-5.64Q44.52-6.40 44.99-6.92Q45.46-7.45 46.10-7.73Q46.74-8.02 47.50-8.02L47.50-8.02Q48.22-8.02 48.76-7.72Q49.30-7.43 49.64-7.04L49.64-7.04L49.08-6.41Q48.77-6.74 48.39-6.94Q48.01-7.14 47.51-7.14L47.51-7.14Q46.94-7.14 46.49-6.92Q46.03-6.70 45.71-6.28Q45.38-5.87 45.20-5.28Q45.02-4.69 45.02-3.96L45.02-3.96Q45.02-3.22 45.20-2.62Q45.37-2.03 45.68-1.61Q46.00-1.19 46.45-0.96Q46.90-0.73 47.46-0.73L47.46-0.73Q48.04-0.73 48.46-0.96Q48.89-1.19 49.27-1.61L49.27-1.61L49.84-1.00Q49.37-0.46 48.78-0.16Q48.19 0.14 47.44 0.14L47.44 0.14Q46.69 0.14 46.06-0.13Q45.43-0.41 44.97-0.93Q44.51-1.45 44.25-2.21Q43.99-2.98 43.99-3.94ZM51.30 0L51.30-7.87L52.30-7.87L52.30 0L51.30 0ZM54.46 0L54.46-7.87L58.99-7.87L58.99-7.03L55.45-7.03L55.45-4.56L58.44-4.56L58.44-3.71L55.45-3.71L55.45-0.85L59.11-0.85L59.11 0L54.46 0Z" transform="translate(-1.08, 8.016)"></path></g></g></g></g></g><defs v-gra="od"></defs></svg>
